<svg xmlns="http://www.w3.org/2000/svg" viewBox="0 0 816 1056"
  width="816" height="1056" font-family="'Baloo 2','Nunito',ui-rounded,'SF Pro Rounded','Hiragino Maru Gothic ProN','Comic Sans MS',system-ui,sans-serif">
<defs>
  <radialGradient id="gDream" cx="50%" cy="-8%" r="118%">
    <stop offset="0" stop-color="#fff3fb"/><stop offset=".34" stop-color="#ffdff2"/>
    <stop offset="1" stop-color="#e9c6ff"/></radialGradient>
  <linearGradient id="gHead" x1="0" y1="0" x2="1" y2="0">
    <stop offset="0" stop-color="#e0287f"/><stop offset="1" stop-color="#ff5c9d"/></linearGradient>
  
</defs>

<rect width="816" height="1056" fill="#fffaf6"/>

<!-- header band -->
<path d="M0 0 H816 V96 Q408 122 0 96 Z" fill="url(#gHead)"/>
<text x="40" y="38" font-size="13" font-weight="800" fill="#ffd9ec" letter-spacing="2.4">CLAW MACHINE CUTIES · DEVELOPMENT BINDER</text>
<text x="40" y="72" font-size="31" font-weight="800" fill="#fff">The Bow Boutique</text>
<g><circle cx="754" cy="46" r="27" fill="#fff" opacity=".95"/>
  <text x="754" y="55" text-anchor="middle" font-size="24" font-weight="800" fill="#e0287f">11</text></g>
<g><rect x="40" y="104" width="83.2" height="26" rx="13" fill="#e0287f" opacity=".95"/>
    <text x="81.6" y="122" text-anchor="middle" font-size="13" font-weight="800"
      fill="#fff" letter-spacing="1">PROPOSED</text></g>
<text x="137.2" y="122" font-size="15" font-weight="700" fill="#a4548a">the doubles finally have a job</text>


  <g>
    <rect x="40" y="150" width="736" height="102" rx="16" fill="#fff" stroke="#e0287f" stroke-width="2.4" opacity=".97"/>
    <rect x="40" y="150" width="736" height="102" rx="16" fill="#e0287f" opacity=".07"/>
    
    <text x="54" y="176" font-size="15.5" font-weight="800" fill="#e0287f">You will catch Mochi eleven times. What are the other ten for?</text>
    <text x="54" y="198" font-size="13" font-weight="600" fill="#7a3f66">
      <tspan x="54" dy="0">Doubles pile up fast — the album already counts them with a little ×3. Turn them into a currency: trade</tspan><tspan x="54" dy="17">three doubles for one accessory, and every cutie you own can be dressed. Nothing here changes a grab, a</tspan><tspan x="54" dy="17">difficulty or an unlock. It is pure decoration, which is exactly the point.</tspan>
    </text>
  </g>

  <rect x="40" y="272" width="380" height="256" rx="20" fill="#fff8fc" stroke="#e0287f" stroke-width="3"/>
  <text x="230" y="298" text-anchor="middle" font-size="16" font-weight="800" fill="#e0287f">THE PEGBOARD</text>
  <circle cx="60" cy="316" r="2" fill="#f3c4de"/><circle cx="100" cy="316" r="2" fill="#f3c4de"/><circle cx="140" cy="316" r="2" fill="#f3c4de"/><circle cx="180" cy="316" r="2" fill="#f3c4de"/><circle cx="220" cy="316" r="2" fill="#f3c4de"/><circle cx="260" cy="316" r="2" fill="#f3c4de"/><circle cx="300" cy="316" r="2" fill="#f3c4de"/><circle cx="340" cy="316" r="2" fill="#f3c4de"/><circle cx="380" cy="316" r="2" fill="#f3c4de"/><circle cx="420" cy="316" r="2" fill="#f3c4de"/><circle cx="60" cy="382" r="2" fill="#f3c4de"/><circle cx="100" cy="382" r="2" fill="#f3c4de"/><circle cx="140" cy="382" r="2" fill="#f3c4de"/><circle cx="180" cy="382" r="2" fill="#f3c4de"/><circle cx="220" cy="382" r="2" fill="#f3c4de"/><circle cx="260" cy="382" r="2" fill="#f3c4de"/><circle cx="300" cy="382" r="2" fill="#f3c4de"/><circle cx="340" cy="382" r="2" fill="#f3c4de"/><circle cx="380" cy="382" r="2" fill="#f3c4de"/><circle cx="420" cy="382" r="2" fill="#f3c4de"/><circle cx="60" cy="448" r="2" fill="#f3c4de"/><circle cx="100" cy="448" r="2" fill="#f3c4de"/><circle cx="140" cy="448" r="2" fill="#f3c4de"/><circle cx="180" cy="448" r="2" fill="#f3c4de"/><circle cx="220" cy="448" r="2" fill="#f3c4de"/><circle cx="260" cy="448" r="2" fill="#f3c4de"/><circle cx="300" cy="448" r="2" fill="#f3c4de"/><circle cx="340" cy="448" r="2" fill="#f3c4de"/><circle cx="380" cy="448" r="2" fill="#f3c4de"/><circle cx="420" cy="448" r="2" fill="#f3c4de"/><circle cx="60" cy="514" r="2" fill="#f3c4de"/><circle cx="100" cy="514" r="2" fill="#f3c4de"/><circle cx="140" cy="514" r="2" fill="#f3c4de"/><circle cx="180" cy="514" r="2" fill="#f3c4de"/><circle cx="220" cy="514" r="2" fill="#f3c4de"/><circle cx="260" cy="514" r="2" fill="#f3c4de"/><circle cx="300" cy="514" r="2" fill="#f3c4de"/><circle cx="340" cy="514" r="2" fill="#f3c4de"/><circle cx="380" cy="514" r="2" fill="#f3c4de"/><circle cx="420" cy="514" r="2" fill="#f3c4de"/>
  <g transform="translate(92,356)">
      <circle r="34" fill="#fff" stroke="#f3c4de" stroke-width="2.4"/>
      <circle cy="-38" r="4" fill="#a4548a"/>
      <g transform="translate(0,0) rotate(-10) scale(1.1)">
    <path d="M0 0 L-16 -10 Q-21 0 -16 10 Z" fill="#ff5c9d"/>
    <path d="M0 0 L16 -10 Q21 0 16 10 Z" fill="#ff5c9d"/>
    <path d="M0 0 L-16 -10 Q-12 -3 -7 0 Z" fill="#c9377f" opacity=".5"/>
    <path d="M0 0 L16 -10 Q12 -3 7 0 Z" fill="#c9377f" opacity=".5"/>
    <circle r="5.2" fill="#c9377f"/><circle cx="-1.4" cy="-1.6" r="1.6" fill="#fff" opacity=".65"/>
  </g>
      <text x="0" y="52" text-anchor="middle" font-size="11" font-weight="800" fill="#a4548a">ribbon</text>
    </g><g transform="translate(188,356)">
      <circle r="34" fill="#fff" stroke="#f3c4de" stroke-width="2.4"/>
      <circle cy="-38" r="4" fill="#a4548a"/>
      <g transform="translate(0,0) rotate(-10) scale(1.1)">
    <path d="M0 0 L-16 -10 Q-21 0 -16 10 Z" fill="#7fd8ff"/>
    <path d="M0 0 L16 -10 Q21 0 16 10 Z" fill="#7fd8ff"/>
    <path d="M0 0 L-16 -10 Q-12 -3 -7 0 Z" fill="#3aabe8" opacity=".5"/>
    <path d="M0 0 L16 -10 Q12 -3 7 0 Z" fill="#3aabe8" opacity=".5"/>
    <circle r="5.2" fill="#3aabe8"/><circle cx="-1.4" cy="-1.6" r="1.6" fill="#fff" opacity=".65"/>
  </g>
      <text x="0" y="52" text-anchor="middle" font-size="11" font-weight="800" fill="#a4548a">blue bow</text>
    </g><g transform="translate(284,356)">
      <circle r="34" fill="#fff" stroke="#f3c4de" stroke-width="2.4"/>
      <circle cy="-38" r="4" fill="#a4548a"/>
      <g transform="translate(0,12) scale(1)">
    <path d="M-22 0 h44 l-4 -6 h-36 z" fill="#8f5ce0"/><path d="M-15 -6 q2 -24 15 -24 q13 0 15 24 z" fill="#c9a4ff"/>
    <circle cx="0" cy="-32" r="7" fill="#8f5ce0"/></g>
      <text x="0" y="52" text-anchor="middle" font-size="11" font-weight="800" fill="#a4548a">party hat</text>
    </g><g transform="translate(380,356)">
      <circle r="34" fill="#fff" stroke="#f3c4de" stroke-width="2.4"/>
      <circle cy="-38" r="4" fill="#a4548a"/>
      <g transform="translate(0,4) scale(1)">
    <path d="M-24 6 l-4 -30 l12 10 l8 -18 l8 18 l12 -10 l-4 30 z" fill="#ffd447" stroke="#e8a417" stroke-width="2.4" stroke-linejoin="round"/>
    <circle cx="0" cy="-6" r="4" fill="#ff5c9d"/></g>
      <text x="0" y="52" text-anchor="middle" font-size="11" font-weight="800" fill="#a4548a">crown 👑</text>
    </g><g transform="translate(92,460)">
      <circle r="34" fill="#fff" stroke="#f3c4de" stroke-width="2.4"/>
      <circle cy="-38" r="4" fill="#a4548a"/>
      <g transform="translate(0,0) scale(1)">
    <circle cx="-13" cy="0" r="11" fill="#5b3a52" opacity=".85"/><circle cx="13" cy="0" r="11" fill="#5b3a52" opacity=".85"/>
    <path d="M-2 0 h4 M-24 -4 l-8 -3 M24 -4 l8 -3" stroke="#5b3a52" stroke-width="3" stroke-linecap="round"/></g>
      <text x="0" y="52" text-anchor="middle" font-size="11" font-weight="800" fill="#a4548a">star shades</text>
    </g><g transform="translate(188,460)">
      <circle r="34" fill="#fff" stroke="#f3c4de" stroke-width="2.4"/>
      <circle cy="-38" r="4" fill="#a4548a"/>
      <g transform="translate(0,-8) scale(1)">
    <path d="M-24 0 q24 14 48 0 l0 10 q-24 12 -48 0 z" fill="#ff9a7a"/><path d="M14 8 l14 26 l-12 4 l-10 -26 z" fill="#ff9a7a"/></g>
      <text x="0" y="52" text-anchor="middle" font-size="11" font-weight="800" fill="#a4548a">scarf</text>
    </g><g transform="translate(284,460)">
      <circle r="34" fill="#fff" stroke="#f3c4de" stroke-width="2.4"/>
      <circle cy="-38" r="4" fill="#a4548a"/>
      <g transform="translate(0,0) scale(1.2)">
    <ellipse cx="0" cy="-11" rx="6" ry="10" fill="#ff8fbe" transform="rotate(0)"/><ellipse cx="0" cy="-11" rx="6" ry="10" fill="#ff8fbe" transform="rotate(72)"/><ellipse cx="0" cy="-11" rx="6" ry="10" fill="#ff8fbe" transform="rotate(144)"/><ellipse cx="0" cy="-11" rx="6" ry="10" fill="#ff8fbe" transform="rotate(216)"/><ellipse cx="0" cy="-11" rx="6" ry="10" fill="#ff8fbe" transform="rotate(288)"/>
    <circle r="5.5" fill="#ffd447"/></g>
      <text x="0" y="52" text-anchor="middle" font-size="11" font-weight="800" fill="#a4548a">flower</text>
    </g><g transform="translate(380,460)">
      <circle r="34" fill="#fff" stroke="#f3c4de" stroke-width="2.4"/>
      <circle cy="-38" r="4" fill="#a4548a"/>
      <g transform="translate(0,0) rotate(-10) scale(1.1)">
    <path d="M0 0 L-16 -10 Q-21 0 -16 10 Z" fill="#ffd447"/>
    <path d="M0 0 L16 -10 Q21 0 16 10 Z" fill="#ffd447"/>
    <path d="M0 0 L-16 -10 Q-12 -3 -7 0 Z" fill="#e8a417" opacity=".5"/>
    <path d="M0 0 L16 -10 Q12 -3 7 0 Z" fill="#e8a417" opacity=".5"/>
    <circle r="5.2" fill="#e8a417"/><circle cx="-1.4" cy="-1.6" r="1.6" fill="#fff" opacity=".65"/>
  </g>
      <text x="0" y="52" text-anchor="middle" font-size="11" font-weight="800" fill="#a4548a">gold bow</text>
    </g>

  <rect x="440" y="272" width="336" height="256" rx="20" fill="#fff" stroke="#c9a4ff" stroke-width="3"/>
  <text x="608" y="298" text-anchor="middle" font-size="16" font-weight="800" fill="#c9a4ff">THE FITTING ROOM</text>
  <g transform="translate(560,420) scale(1.5)"><g transform="scale(1,1)">
    <ellipse cx="-27" cy="16" rx="11" ry="9" fill="#e0a96c" transform="rotate(-24 -27 16)"/><ellipse cx="27" cy="16" rx="11" ry="9" fill="#e0a96c" transform="rotate(24 27 16)"/>
    <ellipse cx="-16" cy="36" rx="13" ry="11" fill="#e0a96c"/>
    <ellipse cx="16" cy="36" rx="13" ry="11" fill="#e0a96c"/>
    <ellipse cx="-16" cy="37" rx="7" ry="5.5" fill="#ffe6c8"/>
    <ellipse cx="16" cy="37" rx="7" ry="5.5" fill="#ffe6c8"/>
    <ellipse cx="0" cy="22" rx="25" ry="21" fill="#f0c08a"/>
    <ellipse cx="0" cy="25" rx="14" ry="12" fill="#ffe6c8" opacity=".75"/>
    <g transform="scale(1,1)">
    <circle cx="-25" cy="-27" r="13" fill="#f0c08a"/><circle cx="-25" cy="-27" r="6.6" fill="#ffe6c8"/>
    <circle cx="25" cy="-27" r="13" fill="#f0c08a"/><circle cx="25" cy="-27" r="6.6" fill="#ffe6c8"/>
    <circle cx="0" cy="-8" r="28" fill="#f0c08a"/>
    <ellipse cx="0" cy="4" rx="15" ry="11.5" fill="#ffe6c8"/>
    <ellipse cx="0" cy="-1" rx="5.4" ry="4.2" fill="#553244"/>
    <ellipse cx="-20" cy="-1" rx="7" ry="4.48" fill="#ff87b8" opacity=".48"/><ellipse cx="20" cy="-1" rx="7" ry="4.48" fill="#ff87b8" opacity=".48"/>
    <path d="M-17.5 -9 q6 -8 12 0" stroke="#553244" stroke-width="3" fill="none" stroke-linecap="round"/><path d="M5.5 -9 q6 -8 12 0" stroke="#553244" stroke-width="3" fill="none" stroke-linecap="round"/><path d="M-9 4 q9 11 18 0 z" fill="#553244"/><path d="M-5 10 q4 4 8 0 z" fill="#ff7aa8"/>
              <path transform="translate(-27,-22) scale(0.48)" d="M0 -10 Q1.6 -1.6 10 0 Q1.6 1.6 0 10 Q-1.6 1.6 -10 0 Q-1.6 -1.6 0 -10 Z" fill="#fff6bd"/><path transform="translate(27,-20) scale(0.4)" d="M0 -10 Q1.6 -1.6 10 0 Q1.6 1.6 0 10 Q-1.6 1.6 -10 0 Q-1.6 -1.6 0 -10 Z" fill="#fff6bd"/>
    <g transform="translate(20,-30) rotate(-16) scale(0.72)">
    <path d="M0 0 L-16 -10 Q-21 0 -16 10 Z" fill="#ff87b8"/>
    <path d="M0 0 L16 -10 Q21 0 16 10 Z" fill="#ff87b8"/>
    <path d="M0 0 L-16 -10 Q-12 -3 -7 0 Z" fill="#e4568f" opacity=".5"/>
    <path d="M0 0 L16 -10 Q12 -3 7 0 Z" fill="#e4568f" opacity=".5"/>
    <circle r="5.2" fill="#e4568f"/><circle cx="-1.4" cy="-1.6" r="1.6" fill="#fff" opacity=".65"/>
  </g>
  </g>
  </g></g>
  <g transform="translate(560,364) scale(1.6)">
    <path d="M-24 6 l-4 -30 l12 10 l8 -18 l8 18 l12 -10 l-4 30 z" fill="#ffd447" stroke="#e8a417" stroke-width="2.4" stroke-linejoin="round"/>
    <circle cx="0" cy="-6" r="4" fill="#ff5c9d"/></g>
  <g transform="translate(560,404) scale(1.35)">
    <circle cx="-13" cy="0" r="11" fill="#5b3a52" opacity=".85"/><circle cx="13" cy="0" r="11" fill="#5b3a52" opacity=".85"/>
    <path d="M-2 0 h4 M-24 -4 l-8 -3 M24 -4 l8 -3" stroke="#5b3a52" stroke-width="3" stroke-linecap="round"/></g>
  <g transform="translate(560,446) scale(1.5)">
    <path d="M-24 0 q24 14 48 0 l0 10 q-24 12 -48 0 z" fill="#7fe0c4"/><path d="M14 8 l14 26 l-12 4 l-10 -26 z" fill="#7fe0c4"/></g>
  <g transform="translate(700,340)">
    <rect x="-52" y="-24" width="104" height="48" rx="14" fill="#ffeef7"/>
    <text x="0" y="-2" text-anchor="middle" font-size="12.5" font-weight="800" fill="#e0287f">Honeypaw ×11</text>
    <text x="0" y="16" text-anchor="middle" font-size="11.5" font-weight="700" fill="#a4548a">10 spare · 3 tokens</text>
  </g>
  <text x="608" y="512" text-anchor="middle" font-size="12.5" font-weight="700" fill="#a4548a">tap a thing on the pegboard to try it on</text>

  <g>
    <rect x="40" y="552" width="236" height="140" rx="16" fill="#fff" stroke="#e0287f" stroke-width="2.4" opacity=".97"/>
    <rect x="40" y="552" width="236" height="140" rx="16" fill="#e0287f" opacity=".07"/>
    <g><circle cx="60" cy="572" r="15" fill="#e0287f" stroke="#fff" stroke-width="3.5"/>
    <text x="60" y="578" text-anchor="middle" font-size="17" font-weight="800" fill="#fff">1</text></g>
    <text x="82" y="578" font-size="15.5" font-weight="800" fill="#e0287f">Doubles become useful</text>
    <text x="54" y="600" font-size="13" font-weight="600" fill="#7a3f66">
      <tspan x="54" dy="0">Three spare copies of any cutie</tspan><tspan x="54" dy="17">= one accessory token. Suddenly</tspan><tspan x="54" dy="17">the eleventh Mochi is good news.</tspan>
    </text>
  </g>
  <g>
    <rect x="292" y="552" width="236" height="140" rx="16" fill="#fff" stroke="#7fe0c4" stroke-width="2.4" opacity=".97"/>
    <rect x="292" y="552" width="236" height="140" rx="16" fill="#7fe0c4" opacity=".07"/>
    <g><circle cx="312" cy="572" r="15" fill="#7fe0c4" stroke="#fff" stroke-width="3.5"/>
    <text x="312" y="578" text-anchor="middle" font-size="17" font-weight="800" fill="#fff">2</text></g>
    <text x="334" y="578" font-size="15.5" font-weight="800" fill="#7fe0c4">It changes nothing else</text>
    <text x="306" y="600" font-size="13" font-weight="600" fill="#7a3f66">
      <tspan x="306" dy="0">A crown does not make a cutie</tspan><tspan x="306" dy="17">easier to grab, rarer, or worth</tspan><tspan x="306" dy="17">more. It is only for looking</tspan><tspan x="306" dy="17">wonderful.</tspan>
    </text>
  </g>
  <g>
    <rect x="544" y="552" width="232" height="140" rx="16" fill="#fff" stroke="#c9a4ff" stroke-width="2.4" opacity=".97"/>
    <rect x="544" y="552" width="232" height="140" rx="16" fill="#c9a4ff" opacity=".07"/>
    <g><circle cx="564" cy="572" r="15" fill="#c9a4ff" stroke="#fff" stroke-width="3.5"/>
    <text x="564" y="578" text-anchor="middle" font-size="17" font-weight="800" fill="#fff">3</text></g>
    <text x="586" y="578" font-size="15.5" font-weight="800" fill="#c9a4ff">It shows up everywhere</text>
    <text x="558" y="600" font-size="13" font-weight="600" fill="#7a3f66">
      <tspan x="558" dy="0">A dressed cutie wears its</tspan><tspan x="558" dy="17">outfit in the pit, in the</tspan><tspan x="558" dy="17">chute, in the room, in the</tspan><tspan x="558" dy="17">album and in the parade.</tspan>
    </text>
  </g>

  <g>
    <rect x="40" y="712" width="356" height="148" rx="16" fill="#fff" stroke="#e8a417" stroke-width="2.4" opacity=".97"/>
    <rect x="40" y="712" width="356" height="148" rx="16" fill="#e8a417" opacity=".07"/>
    <g><circle cx="60" cy="732" r="15" fill="#e8a417" stroke="#fff" stroke-width="3.5"/>
    <text x="60" y="738" text-anchor="middle" font-size="17" font-weight="800" fill="#fff">4</text></g>
    <text x="82" y="738" font-size="15.5" font-weight="800" fill="#e8a417">The eight starter accessories</text>
    <text x="54" y="760" font-size="13" font-weight="600" fill="#7a3f66">
      <tspan x="54" dy="0">Two bows, a party hat, a crown, star shades, a</tspan><tspan x="54" dy="17">scarf, a flower, a gold bow. Each one is about ten</tspan><tspan x="54" dy="17">lines of drawing code and works on all forty-eight</tspan><tspan x="54" dy="17">cuties, because every cutie is drawn from the same</tspan><tspan x="54" dy="17">kind of shapes.</tspan>
    </text>
  </g>
  <g>
    <rect x="420" y="712" width="356" height="148" rx="16" fill="#fff" stroke="#ff9a7a" stroke-width="2.4" opacity=".97"/>
    <rect x="420" y="712" width="356" height="148" rx="16" fill="#ff9a7a" opacity=".07"/>
    <g><circle cx="440" cy="732" r="15" fill="#ff9a7a" stroke="#fff" stroke-width="3.5"/>
    <text x="440" y="738" text-anchor="middle" font-size="17" font-weight="800" fill="#fff">5</text></g>
    <text x="462" y="738" font-size="15.5" font-weight="800" fill="#ff9a7a">Where they come from</text>
    <text x="434" y="760" font-size="13" font-weight="600" fill="#7a3f66">
      <tspan x="434" dy="0">Some are bought with tokens. Some are given for</tspan><tspan x="434" dy="17">finishing a machine. One or two should be pure</tspan><tspan x="434" dy="17">surprises — a thing that turns up because you</tspan><tspan x="434" dy="17">played on a rainy Tuesday, and never explains</tspan><tspan x="434" dy="17">itself.</tspan>
    </text>
  </g>

  <g transform="translate(40,880)">
    <rect x="0" y="0" width="736" height="122" rx="20" fill="#ffeef7" stroke="#f3c4de" stroke-width="2.4"/>
    <text x="20" y="30" font-size="16" font-weight="800" fill="#e0287f">Ella decides 🩷</text>
    <text x="20" y="58" font-size="13.5" font-weight="600" fill="#7a3f66"><tspan x="20" dy="0">How many spares make a token — three, or five? Can a cutie wear two things at once? Is there one</tspan><tspan x="20" dy="20">accessory only Ella has, that nobody else can ever earn? (There should be.)</tspan></text>
  </g>

<!-- footer -->
<path d="M0 1014 H816 V1056 H0 Z" fill="#ffd9ec" opacity=".7"/>
<text x="40" y="1040" font-size="12" font-weight="700" fill="#a4548a">Made for Ella — Creator, Owner &amp; Game Boss</text>
<text x="776" y="1040" text-anchor="end" font-size="12" font-weight="700" fill="#a4548a">Plate 11</text>
</svg>